<svg width="658" height="256" viewBox="0 0 658 256" fill="none" xmlns="http://www.w3.org/2000/svg">
<g filter="url(#filter0_d)">
<path d="M18 8.49999C-70.48 8.00439 711.084 9.99997 611 9.99997C510.916 9.99997 337.157 221.953 195.5 216C53.8435 210.047 106.48 8.9956 18 8.49999Z" fill="url(#paint0_linear)"/>
</g>
<g filter="url(#filter1_d)">
<path d="M473.939 42H475.837V32.8403H473.933L471.565 34.4844V36.1855L473.901 34.5986H473.939V42ZM481.512 42.1587C483.835 42.1587 485.244 40.3369 485.244 37.4233V37.4106C485.244 34.4971 483.835 32.6816 481.512 32.6816C479.188 32.6816 477.779 34.4971 477.779 37.4106V37.4233C477.779 40.3369 479.188 42.1587 481.512 42.1587ZM481.512 40.6226C480.369 40.6226 479.715 39.4355 479.715 37.4233V37.4106C479.715 35.3984 480.369 34.2178 481.512 34.2178C482.654 34.2178 483.308 35.3984 483.308 37.4106V37.4233C483.308 39.4355 482.654 40.6226 481.512 40.6226ZM490.754 42H492.842L495.178 35.1953H493.242L491.839 40.3623H491.801L490.379 35.1953H488.399L490.754 42ZM498.682 42.1396C500.625 42.1396 501.564 40.9907 501.773 39.9878L501.792 39.918H500.091L500.079 39.9561C499.945 40.3369 499.482 40.7559 498.72 40.7559C497.774 40.7559 497.184 40.1211 497.165 39.0356H501.85V38.4644C501.85 36.4077 500.599 35.0557 498.606 35.0557C496.613 35.0557 495.337 36.4395 495.337 38.604V38.6104C495.337 40.7876 496.6 42.1396 498.682 42.1396ZM498.638 36.4395C499.406 36.4395 499.958 36.9282 500.072 37.8677H497.184C497.305 36.9473 497.876 36.4395 498.638 36.4395ZM502.808 42H504.662V38.166C504.662 37.2075 505.195 36.6553 506.109 36.6553C506.375 36.6553 506.629 36.6934 506.782 36.7568V35.1255C506.642 35.0874 506.452 35.0557 506.249 35.0557C505.442 35.0557 504.865 35.5317 504.668 36.3569H504.63V35.1953H502.808V42ZM510.343 42.1396C512.095 42.1396 513.32 41.2637 513.32 39.9307V39.9243C513.32 38.9214 512.736 38.3628 511.314 38.0645L510.159 37.8169C509.473 37.6709 509.238 37.4424 509.238 37.0933V37.0869C509.238 36.6489 509.638 36.3633 510.279 36.3633C510.965 36.3633 511.365 36.7314 511.428 37.2202L511.435 37.271H513.142V37.2075C513.098 36.0142 512.088 35.0557 510.279 35.0557C508.546 35.0557 507.429 35.8936 507.429 37.1885V37.1948C507.429 38.2104 508.096 38.8706 509.416 39.1499L510.571 39.3911C511.238 39.5371 511.466 39.7466 511.466 40.1084V40.1147C511.466 40.5527 511.041 40.8257 510.343 40.8257C509.6 40.8257 509.2 40.5146 509.08 39.9814L509.067 39.9243H507.258L507.264 39.9814C507.41 41.27 508.458 42.1396 510.343 42.1396ZM515.199 34.3193C515.757 34.3193 516.189 33.8813 516.189 33.3545C516.189 32.8276 515.757 32.3896 515.199 32.3896C514.64 32.3896 514.208 32.8276 514.208 33.3545C514.208 33.8813 514.64 34.3193 515.199 34.3193ZM514.272 42H516.125V35.1953H514.272V42ZM520.493 42.1396C522.549 42.1396 523.863 40.8193 523.863 38.5977V38.585C523.863 36.3823 522.524 35.0557 520.486 35.0557C518.455 35.0557 517.122 36.395 517.122 38.585V38.5977C517.122 40.813 518.423 42.1396 520.493 42.1396ZM520.499 40.686C519.585 40.686 519.007 39.9307 519.007 38.5977V38.585C519.007 37.271 519.591 36.5093 520.486 36.5093C521.388 36.5093 521.978 37.271 521.978 38.585V38.5977C521.978 39.9243 521.4 40.686 520.499 40.686ZM524.822 42H526.675V38.0898C526.675 37.2012 527.202 36.5918 528.034 36.5918C528.865 36.5918 529.284 37.0996 529.284 37.9883V42H531.138V37.6074C531.138 36.0142 530.287 35.0557 528.789 35.0557C527.761 35.0557 527.062 35.5317 526.713 36.3125H526.675V35.1953H524.822V42ZM535.111 42.1396C536.863 42.1396 538.088 41.2637 538.088 39.9307V39.9243C538.088 38.9214 537.504 38.3628 536.083 38.0645L534.927 37.8169C534.242 37.6709 534.007 37.4424 534.007 37.0933V37.0869C534.007 36.6489 534.407 36.3633 535.048 36.3633C535.733 36.3633 536.133 36.7314 536.197 37.2202L536.203 37.271H537.911V37.2075C537.866 36.0142 536.857 35.0557 535.048 35.0557C533.315 35.0557 532.198 35.8936 532.198 37.1885V37.1948C532.198 38.2104 532.864 38.8706 534.185 39.1499L535.34 39.3911C536.006 39.5371 536.235 39.7466 536.235 40.1084V40.1147C536.235 40.5527 535.81 40.8257 535.111 40.8257C534.369 40.8257 533.969 40.5146 533.848 39.9814L533.835 39.9243H532.026L532.033 39.9814C532.179 41.27 533.226 42.1396 535.111 42.1396Z" fill="white"/>
</g>
<g filter="url(#filter2_d)">
<path d="M631 27C631 17.6112 623.389 10 614 10H373L631 172V91V27Z" fill="#3423F2"/>
</g>
<g filter="url(#filter3_d)">
<path d="M370.48 9L13 77.6283L412 142.5L615 9H370.48Z" fill="#F7CD64"/>
</g>
<g filter="url(#filter4_d)">
<path d="M105 214L30.5 76L419.5 134L105 214Z" fill="#A4FFDE"/>
<path d="M416.968 134.128L31.4147 76.6419L105.255 213.419L416.968 134.128Z" stroke="#2EBA87"/>
</g>
<g filter="url(#filter5_d)">
<path d="M104.691 187L30 76L420 122.652L104.691 187Z" fill="#CCFFED"/>
<path d="M104.691 187L30 76L420 122.652L104.691 187Z" fill="#CCFFED"/>
<path d="M416.868 122.781L31.0239 76.626L104.919 186.443L416.868 122.781Z" stroke="url(#paint1_linear)"/>
</g>
<g filter="url(#filter6_d)">
<path d="M631 61L469.5 32L535.756 67.9006C552.566 77.0093 549.449 102.015 530.917 106.719L386 143.5L532 171.579V226H590C612.644 226 631 207.644 631 185V143.5V61Z" fill="url(#paint2_linear)"/>
</g>
<g filter="url(#filter7_d)">
<path d="M58 225L532 101.5V225H58Z" fill="url(#paint3_linear)" shape-rendering="crispEdges"/>
<path d="M531.5 224.5H61.9021L531.5 102.147V224.5Z" stroke="url(#paint4_linear)" shape-rendering="crispEdges"/>
</g>
<g filter="url(#filter8_d)">
<path d="M95 114.127L143.633 52L192 114.127L142.304 178L95 114.127Z" fill="#3728BC"/>
</g>
<g filter="url(#filter9_d)">
<path d="M95 115L145 52L131.066 101.197L95 115Z" fill="#1349D5"/>
</g>
<g filter="url(#filter10_d)">
<path d="M95 115L145 52L110.574 108.983L95 115Z" fill="#0B35A3"/>
</g>
<g filter="url(#filter11_d)">
<path d="M129 100L143.356 52L154 100H129Z" fill="#2C73E5"/>
</g>
<g filter="url(#filter12_d)">
<path d="M129 100L142.032 178L154 100H129Z" fill="#3132CD"/>
</g>
<g filter="url(#filter13_d)">
<path d="M176 108.081L142 178L153.679 100L176 108.081Z" fill="#3A0B62"/>
</g>
<g filter="url(#filter14_d)">
<path d="M106 108.081L142 178L129.634 100L106 108.081Z" fill="#3728BC"/>
</g>
<g filter="url(#filter15_d)">
<path d="M106 108.081L142 178L129.634 100L106 108.081Z" fill="#3728BC"/>
<path d="M129.233 100.665L106.71 108.367L141.018 175.001L129.233 100.665Z" stroke="#312788"/>
</g>
<g filter="url(#filter16_d)">
<path d="M177.027 108L142 178L192 113.628L177.027 108Z" fill="#38084B"/>
</g>
<g filter="url(#filter17_d)">
<path d="M107.674 108L142 178L95 114.903L107.674 108Z" fill="#4B3AE0"/>
</g>
<g filter="url(#filter18_d)">
<path d="M153.5 100L143 51.5L192 115L153.5 100Z" fill="#79DFFF"/>
</g>
<g filter="url(#filter19_d)">
<path d="M11 21C11 13.8203 16.8203 8 24 8H65L102.311 130.86C110.391 157.466 122.418 182.71 137.988 205.748L151 225H65H43C25.3269 225 11 210.673 11 193V144.975V21Z" fill="#EA60DC"/>
</g>
<g filter="url(#filter20_d)">
<path d="M13 21C13 14.9249 17.9249 10 24 10H52.3189C59.5039 10 65.8104 14.7829 67.7482 21.7016C85.6945 85.776 89.2678 153.023 78.2129 218.639L77.815 221H64.4708H45C27.3269 221 13 206.673 13 189V143.188V21Z" fill="url(#paint5_linear)" shape-rendering="crispEdges"/>
</g>
<g filter="url(#filter21_d)">
<path d="M213.565 224.124L279.85 225.353C279.85 225.353 282.599 215.155 266.545 160.702C250.49 106.249 277.665 80.2878 277.665 80.2878C277.665 80.2878 248.665 79.7499 219.053 105.666C189.44 131.583 213.565 224.124 213.565 224.124Z" fill="url(#paint6_linear)"/>
</g>
<g filter="url(#filter22_d)">
<path d="M262.166 225.025L279.987 225.356C279.987 225.356 276.553 203.592 263.494 153.379C250.436 103.166 279.78 80.4821 279.78 80.4821C279.78 80.4821 276.372 76.9041 255.471 102.954C234.57 129.003 262.166 225.025 262.166 225.025Z" fill="url(#paint7_linear)"/>
<path d="M278.205 81.1877C278.305 81.0952 278.4 81.0085 278.49 80.9277C277.905 81.0955 277.023 81.491 275.745 82.3624C272.344 84.6806 266.305 90.2501 255.861 103.267C250.745 109.642 248.551 120.382 248.199 133.031C247.848 145.653 249.333 160.063 251.474 173.68C253.615 187.294 256.408 200.097 258.667 209.498C259.796 214.198 260.791 218.047 261.504 220.72C261.86 222.056 262.146 223.099 262.343 223.807C262.427 224.112 262.495 224.355 262.545 224.532L279.396 224.845C279.374 224.719 279.35 224.574 279.321 224.407C279.202 223.717 279.017 222.672 278.755 221.262C278.229 218.442 277.393 214.156 276.148 208.301C273.659 196.592 269.538 178.605 263.011 153.505C256.451 128.282 260.536 109.937 266.289 97.8852C269.164 91.864 272.451 87.4217 275.023 84.4818C276.309 83.0117 277.417 81.9169 278.205 81.1877Z" stroke="#454883"/>
</g>
<g filter="url(#filter23_d)">
<path d="M261.442 122.995C261.442 122.995 302.495 99.3494 338.258 107.945C374.022 116.54 363.692 27.8745 363.692 27.8745C363.692 27.8745 339.316 50.9138 321.531 58.0585C303.745 65.2032 308.325 51.2543 282.211 68.1598C256.097 85.0652 261.442 122.995 261.442 122.995Z" fill="url(#paint8_linear)"/>
<path d="M363.568 31.7115C363.462 30.5111 363.369 29.5657 363.302 28.9207C363.195 29.0195 363.077 29.1283 362.948 29.2467C362.245 29.8924 361.221 30.8223 359.937 31.9602C357.369 34.2359 353.76 37.3447 349.593 40.6777C341.273 47.3332 330.683 54.9206 321.717 58.5225C317.222 60.3281 314.107 60.8137 311.548 60.7736C310.273 60.7537 309.148 60.6033 308.079 60.4305C307.789 60.3834 307.504 60.3351 307.222 60.2873C306.46 60.1579 305.719 60.0323 304.939 59.9458C300.767 59.4838 295.504 60.1497 282.483 68.5795C269.593 76.9239 264.444 90.471 262.527 101.999C261.57 107.758 261.422 112.995 261.515 116.792C261.561 118.69 261.667 120.227 261.762 121.288C261.794 121.646 261.824 121.949 261.85 122.194C262.15 122.03 262.55 121.814 263.043 121.553C264.241 120.921 265.991 120.027 268.202 118.982C272.624 116.893 278.892 114.198 286.283 111.771C301.051 106.923 320.361 103.129 338.375 107.459C342.747 108.51 346.373 108.067 349.392 106.527C352.42 104.982 354.887 102.308 356.886 98.812C360.891 91.8055 362.946 81.6177 363.888 71.0884C364.83 60.5744 364.657 49.7852 364.248 41.6192C364.043 37.5375 363.78 34.114 363.568 31.7115Z" stroke="#454883"/>
</g>
<g filter="url(#filter24_d)">
<path d="M298.888 9H464.619H607C607 9 419.533 35.7936 476.124 98.5627C532.714 161.332 398.544 204.382 371.026 193.243C343.508 182.104 389.838 89.5312 332.47 66.6513C275.102 43.7714 298.888 9 298.888 9Z" fill="url(#paint9_linear)"/>
</g>
<g filter="url(#filter25_d)">
<path d="M349.129 9H489.125H567.5L596 61.5C596 61.5 451.04 29.5993 498.843 77.8574C546.647 126.115 433.311 159.213 410.066 150.649C386.821 142.086 425.956 70.9138 377.496 53.3233C329.036 35.7329 349.129 9 349.129 9Z" fill="#E17966" fill-opacity="0.27" shape-rendering="crispEdges"/>
</g>
<g filter="url(#filter26_d)">
<path d="M350.5 88.5C350.5 98.1032 339.226 76.7764 329.539 76.7764C319.853 76.7764 312 68.9914 312 59.3882C312 49.785 319.853 42 329.539 42C339.226 42 327.5 75 350.5 88.5Z" fill="url(#paint10_linear)"/>
</g>
<g filter="url(#filter27_d)">
<path d="M251.5 145C251.5 145 285.063 113.902 320.512 119.384C355.96 124.866 368.518 47.2808 368.518 47.2808C353.104 62.8015 334.558 75.0891 313.564 81.2307C309.671 82.3695 305.821 83.4222 302.286 84.2726C284.738 88.4937 290.492 84.6818 264.772 94.7824C239.052 104.883 251.5 145 251.5 145Z" fill="url(#paint11_linear)" shape-rendering="crispEdges"/>
</g>
<g filter="url(#filter28_d)">
<ellipse cx="229.206" cy="156.864" rx="29.3143" ry="28.5" transform="rotate(-27.7178 229.206 156.864)" fill="url(#paint12_radial)"/>
</g>
<g filter="url(#filter29_d)">
<path d="M403 114.5L422 127.863V208L403 191.59V114.5Z" fill="url(#paint13_linear)"/>
<path d="M403 114.5L422 127.863V208L403 191.59V114.5Z" fill="url(#paint14_linear)"/>
<path d="M403 114.5L422 127.863V208L403 191.59V114.5Z" fill="url(#paint15_linear)"/>
</g>
<g filter="url(#filter30_d)">
<path d="M439 112L422 127.698V207L439 190.761V112Z" fill="url(#paint16_linear)"/>
</g>
<g filter="url(#filter31_d)">
<path d="M403 115L421 99L439 112.5L422.5 128.5L403 115Z" fill="url(#paint17_linear)"/>
</g>
<g filter="url(#filter32_d)">
<path d="M432 76.3585L419 59V82L432 76.3585Z" fill="url(#paint18_linear)"/>
<path d="M432 76.3585L419 59V82L432 76.3585Z" fill="url(#paint19_linear)"/>
</g>
<g filter="url(#filter33_d)">
<path d="M432 76L419 106V81.5714L432 76Z" fill="url(#paint20_linear)"/>
<path d="M432 76L419 106V81.5714L432 76Z" fill="url(#paint21_linear)"/>
</g>
<g filter="url(#filter34_d)">
<path d="M405 76L419 105V81.3857L405 76Z" fill="url(#paint22_linear)"/>
<path d="M405 76L419 105V81.3857L405 76Z" fill="url(#paint23_linear)"/>
</g>
<g filter="url(#filter35_d)">
<path d="M405 76.3585L419 59V82L405 76.3585Z" fill="url(#paint24_linear)"/>
<path d="M405 76.3585L419 59V82L405 76.3585Z" fill="url(#paint25_linear)"/>
</g>
<g filter="url(#filter36_f)">
<ellipse cx="420.5" cy="112.5" rx="7.5" ry="2.5" fill="#292020" fill-opacity="0.6"/>
</g>
<g filter="url(#filter37_d)">
<path d="M417.886 167L461.5 175.5L429.5 181.5L417.052 214.283L417.886 167Z" fill="url(#paint26_linear)"/>
</g>
<g filter="url(#filter38_d)">
<ellipse cx="267.87" cy="75.5" rx="42.8698" ry="42.5" fill="url(#paint27_radial)"/>
</g>
<g filter="url(#filter39_d)">
<path d="M275.624 120.715C275.867 112.063 271.156 103.969 263.547 99.8401C248.278 91.5539 229.507 102.456 229.428 119.821C229.389 128.188 233.973 135.954 241.284 140.029C256.351 148.427 275.139 137.95 275.624 120.715Z" stroke="white" stroke-width="0.5" shape-rendering="crispEdges"/>
</g>
<g filter="url(#filter40_d)">
<ellipse cx="476" cy="120.793" rx="24" ry="23.793" fill="url(#paint28_radial)"/>
</g>
<defs>
<filter id="filter0_d" x="0.00146484" y="0.420898" width="646.871" height="245.702" filterUnits="userSpaceOnUse" color-interpolation-filters="sRGB">
<feFlood flood-opacity="0" result="BackgroundImageFix"/>
<feColorMatrix in="SourceAlpha" type="matrix" values="0 0 0 0 0 0 0 0 0 0 0 0 0 0 0 0 0 0 127 0" result="hardAlpha"/>
<feOffset dx="8" dy="11"/>
<feGaussianBlur stdDeviation="9.5"/>
<feComposite in2="hardAlpha" operator="out"/>
<feColorMatrix type="matrix" values="0 0 0 0 0 0 0 0 0 0 0 0 0 0 0 0 0 0 0.25 0"/>
<feBlend mode="normal" in2="BackgroundImageFix" result="effect1_dropShadow"/>
<feBlend mode="normal" in="SourceGraphic" in2="effect1_dropShadow" result="shape"/>
</filter>
<filter id="filter1_d" x="460.565" y="24.3896" width="104.523" height="47.769" filterUnits="userSpaceOnUse" color-interpolation-filters="sRGB">
<feFlood flood-opacity="0" result="BackgroundImageFix"/>
<feColorMatrix in="SourceAlpha" type="matrix" values="0 0 0 0 0 0 0 0 0 0 0 0 0 0 0 0 0 0 127 0" result="hardAlpha"/>
<feOffset dx="8" dy="11"/>
<feGaussianBlur stdDeviation="9.5"/>
<feComposite in2="hardAlpha" operator="out"/>
<feColorMatrix type="matrix" values="0 0 0 0 0 0 0 0 0 0 0 0 0 0 0 0 0 0 0.25 0"/>
<feBlend mode="normal" in2="BackgroundImageFix" result="effect1_dropShadow"/>
<feBlend mode="normal" in="SourceGraphic" in2="effect1_dropShadow" result="shape"/>
</filter>
<filter id="filter2_d" x="362" y="2" width="296" height="200" filterUnits="userSpaceOnUse" color-interpolation-filters="sRGB">
<feFlood flood-opacity="0" result="BackgroundImageFix"/>
<feColorMatrix in="SourceAlpha" type="matrix" values="0 0 0 0 0 0 0 0 0 0 0 0 0 0 0 0 0 0 127 0" result="hardAlpha"/>
<feOffset dx="8" dy="11"/>
<feGaussianBlur stdDeviation="9.5"/>
<feComposite in2="hardAlpha" operator="out"/>
<feColorMatrix type="matrix" values="0 0 0 0 0 0 0 0 0 0 0 0 0 0 0 0 0 0 0.25 0"/>
<feBlend mode="normal" in2="BackgroundImageFix" result="effect1_dropShadow"/>
<feBlend mode="normal" in="SourceGraphic" in2="effect1_dropShadow" result="shape"/>
</filter>
<filter id="filter3_d" x="2" y="1" width="640" height="171.5" filterUnits="userSpaceOnUse" color-interpolation-filters="sRGB">
<feFlood flood-opacity="0" result="BackgroundImageFix"/>
<feColorMatrix in="SourceAlpha" type="matrix" values="0 0 0 0 0 0 0 0 0 0 0 0 0 0 0 0 0 0 127 0" result="hardAlpha"/>
<feOffset dx="8" dy="11"/>
<feGaussianBlur stdDeviation="9.5"/>
<feComposite in2="hardAlpha" operator="out"/>
<feColorMatrix type="matrix" values="0 0 0 0 0 0 0 0 0 0 0 0 0 0 0 0 0 0 0.25 0"/>
<feBlend mode="normal" in2="BackgroundImageFix" result="effect1_dropShadow"/>
<feBlend mode="normal" in="SourceGraphic" in2="effect1_dropShadow" result="shape"/>
</filter>
<filter id="filter4_d" x="19.5" y="68" width="427" height="176" filterUnits="userSpaceOnUse" color-interpolation-filters="sRGB">
<feFlood flood-opacity="0" result="BackgroundImageFix"/>
<feColorMatrix in="SourceAlpha" type="matrix" values="0 0 0 0 0 0 0 0 0 0 0 0 0 0 0 0 0 0 127 0" result="hardAlpha"/>
<feOffset dx="8" dy="11"/>
<feGaussianBlur stdDeviation="9.5"/>
<feComposite in2="hardAlpha" operator="out"/>
<feColorMatrix type="matrix" values="0 0 0 0 0 0 0 0 0 0 0 0 0 0 0 0 0 0 0.25 0"/>
<feBlend mode="normal" in2="BackgroundImageFix" result="effect1_dropShadow"/>
<feBlend mode="normal" in="SourceGraphic" in2="effect1_dropShadow" result="shape"/>
</filter>
<filter id="filter5_d" x="19" y="68" width="428" height="149" filterUnits="userSpaceOnUse" color-interpolation-filters="sRGB">
<feFlood flood-opacity="0" result="BackgroundImageFix"/>
<feColorMatrix in="SourceAlpha" type="matrix" values="0 0 0 0 0 0 0 0 0 0 0 0 0 0 0 0 0 0 127 0" result="hardAlpha"/>
<feOffset dx="8" dy="11"/>
<feGaussianBlur stdDeviation="9.5"/>
<feComposite in2="hardAlpha" operator="out"/>
<feColorMatrix type="matrix" values="0 0 0 0 0 0 0 0 0 0 0 0 0 0 0 0 0 0 0.25 0"/>
<feBlend mode="normal" in2="BackgroundImageFix" result="effect1_dropShadow"/>
<feBlend mode="normal" in="SourceGraphic" in2="effect1_dropShadow" result="shape"/>
</filter>
<filter id="filter6_d" x="375" y="24" width="283" height="232" filterUnits="userSpaceOnUse" color-interpolation-filters="sRGB">
<feFlood flood-opacity="0" result="BackgroundImageFix"/>
<feColorMatrix in="SourceAlpha" type="matrix" values="0 0 0 0 0 0 0 0 0 0 0 0 0 0 0 0 0 0 127 0" result="hardAlpha"/>
<feOffset dx="8" dy="11"/>
<feGaussianBlur stdDeviation="9.5"/>
<feComposite in2="hardAlpha" operator="out"/>
<feColorMatrix type="matrix" values="0 0 0 0 0 0 0 0 0 0 0 0 0 0 0 0 0 0 0.25 0"/>
<feBlend mode="normal" in2="BackgroundImageFix" result="effect1_dropShadow"/>
<feBlend mode="normal" in="SourceGraphic" in2="effect1_dropShadow" result="shape"/>
</filter>
<filter id="filter7_d" x="47" y="93.5" width="512" height="161.5" filterUnits="userSpaceOnUse" color-interpolation-filters="sRGB">
<feFlood flood-opacity="0" result="BackgroundImageFix"/>
<feColorMatrix in="SourceAlpha" type="matrix" values="0 0 0 0 0 0 0 0 0 0 0 0 0 0 0 0 0 0 127 0" result="hardAlpha"/>
<feOffset dx="8" dy="11"/>
<feGaussianBlur stdDeviation="9.5"/>
<feComposite in2="hardAlpha" operator="out"/>
<feColorMatrix type="matrix" values="0 0 0 0 0 0 0 0 0 0 0 0 0 0 0 0 0 0 0.25 0"/>
<feBlend mode="normal" in2="BackgroundImageFix" result="effect1_dropShadow"/>
<feBlend mode="normal" in="SourceGraphic" in2="effect1_dropShadow" result="shape"/>
</filter>
<filter id="filter8_d" x="84" y="44" width="135" height="164" filterUnits="userSpaceOnUse" color-interpolation-filters="sRGB">
<feFlood flood-opacity="0" result="BackgroundImageFix"/>
<feColorMatrix in="SourceAlpha" type="matrix" values="0 0 0 0 0 0 0 0 0 0 0 0 0 0 0 0 0 0 127 0" result="hardAlpha"/>
<feOffset dx="8" dy="11"/>
<feGaussianBlur stdDeviation="9.5"/>
<feComposite in2="hardAlpha" operator="out"/>
<feColorMatrix type="matrix" values="0 0 0 0 0 0 0 0 0 0 0 0 0 0 0 0 0 0 0.25 0"/>
<feBlend mode="normal" in2="BackgroundImageFix" result="effect1_dropShadow"/>
<feBlend mode="normal" in="SourceGraphic" in2="effect1_dropShadow" result="shape"/>
</filter>
<filter id="filter9_d" x="84" y="44" width="88" height="101" filterUnits="userSpaceOnUse" color-interpolation-filters="sRGB">
<feFlood flood-opacity="0" result="BackgroundImageFix"/>
<feColorMatrix in="SourceAlpha" type="matrix" values="0 0 0 0 0 0 0 0 0 0 0 0 0 0 0 0 0 0 127 0" result="hardAlpha"/>
<feOffset dx="8" dy="11"/>
<feGaussianBlur stdDeviation="9.5"/>
<feComposite in2="hardAlpha" operator="out"/>
<feColorMatrix type="matrix" values="0 0 0 0 0 0 0 0 0 0 0 0 0 0 0 0 0 0 0.25 0"/>
<feBlend mode="normal" in2="BackgroundImageFix" result="effect1_dropShadow"/>
<feBlend mode="normal" in="SourceGraphic" in2="effect1_dropShadow" result="shape"/>
</filter>
<filter id="filter10_d" x="84" y="44" width="88" height="101" filterUnits="userSpaceOnUse" color-interpolation-filters="sRGB">
<feFlood flood-opacity="0" result="BackgroundImageFix"/>
<feColorMatrix in="SourceAlpha" type="matrix" values="0 0 0 0 0 0 0 0 0 0 0 0 0 0 0 0 0 0 127 0" result="hardAlpha"/>
<feOffset dx="8" dy="11"/>
<feGaussianBlur stdDeviation="9.5"/>
<feComposite in2="hardAlpha" operator="out"/>
<feColorMatrix type="matrix" values="0 0 0 0 0 0 0 0 0 0 0 0 0 0 0 0 0 0 0.25 0"/>
<feBlend mode="normal" in2="BackgroundImageFix" result="effect1_dropShadow"/>
<feBlend mode="normal" in="SourceGraphic" in2="effect1_dropShadow" result="shape"/>
</filter>
<filter id="filter11_d" x="118" y="44" width="63" height="86" filterUnits="userSpaceOnUse" color-interpolation-filters="sRGB">
<feFlood flood-opacity="0" result="BackgroundImageFix"/>
<feColorMatrix in="SourceAlpha" type="matrix" values="0 0 0 0 0 0 0 0 0 0 0 0 0 0 0 0 0 0 127 0" result="hardAlpha"/>
<feOffset dx="8" dy="11"/>
<feGaussianBlur stdDeviation="9.5"/>
<feComposite in2="hardAlpha" operator="out"/>
<feColorMatrix type="matrix" values="0 0 0 0 0 0 0 0 0 0 0 0 0 0 0 0 0 0 0.25 0"/>
<feBlend mode="normal" in2="BackgroundImageFix" result="effect1_dropShadow"/>
<feBlend mode="normal" in="SourceGraphic" in2="effect1_dropShadow" result="shape"/>
</filter>
<filter id="filter12_d" x="118" y="92" width="63" height="116" filterUnits="userSpaceOnUse" color-interpolation-filters="sRGB">
<feFlood flood-opacity="0" result="BackgroundImageFix"/>
<feColorMatrix in="SourceAlpha" type="matrix" values="0 0 0 0 0 0 0 0 0 0 0 0 0 0 0 0 0 0 127 0" result="hardAlpha"/>
<feOffset dx="8" dy="11"/>
<feGaussianBlur stdDeviation="9.5"/>
<feComposite in2="hardAlpha" operator="out"/>
<feColorMatrix type="matrix" values="0 0 0 0 0 0 0 0 0 0 0 0 0 0 0 0 0 0 0.25 0"/>
<feBlend mode="normal" in2="BackgroundImageFix" result="effect1_dropShadow"/>
<feBlend mode="normal" in="SourceGraphic" in2="effect1_dropShadow" result="shape"/>
</filter>
<filter id="filter13_d" x="131" y="92" width="72" height="116" filterUnits="userSpaceOnUse" color-interpolation-filters="sRGB">
<feFlood flood-opacity="0" result="BackgroundImageFix"/>
<feColorMatrix in="SourceAlpha" type="matrix" values="0 0 0 0 0 0 0 0 0 0 0 0 0 0 0 0 0 0 127 0" result="hardAlpha"/>
<feOffset dx="8" dy="11"/>
<feGaussianBlur stdDeviation="9.5"/>
<feComposite in2="hardAlpha" operator="out"/>
<feColorMatrix type="matrix" values="0 0 0 0 0 0 0 0 0 0 0 0 0 0 0 0 0 0 0.25 0"/>
<feBlend mode="normal" in2="BackgroundImageFix" result="effect1_dropShadow"/>
<feBlend mode="normal" in="SourceGraphic" in2="effect1_dropShadow" result="shape"/>
</filter>
<filter id="filter14_d" x="95" y="92" width="74" height="116" filterUnits="userSpaceOnUse" color-interpolation-filters="sRGB">
<feFlood flood-opacity="0" result="BackgroundImageFix"/>
<feColorMatrix in="SourceAlpha" type="matrix" values="0 0 0 0 0 0 0 0 0 0 0 0 0 0 0 0 0 0 127 0" result="hardAlpha"/>
<feOffset dx="8" dy="11"/>
<feGaussianBlur stdDeviation="9.5"/>
<feComposite in2="hardAlpha" operator="out"/>
<feColorMatrix type="matrix" values="0 0 0 0 0 0 0 0 0 0 0 0 0 0 0 0 0 0 0.25 0"/>
<feBlend mode="normal" in2="BackgroundImageFix" result="effect1_dropShadow"/>
<feBlend mode="normal" in="SourceGraphic" in2="effect1_dropShadow" result="shape"/>
</filter>
<filter id="filter15_d" x="95" y="92" width="74" height="116" filterUnits="userSpaceOnUse" color-interpolation-filters="sRGB">
<feFlood flood-opacity="0" result="BackgroundImageFix"/>
<feColorMatrix in="SourceAlpha" type="matrix" values="0 0 0 0 0 0 0 0 0 0 0 0 0 0 0 0 0 0 127 0" result="hardAlpha"/>
<feOffset dx="8" dy="11"/>
<feGaussianBlur stdDeviation="9.5"/>
<feComposite in2="hardAlpha" operator="out"/>
<feColorMatrix type="matrix" values="0 0 0 0 0 0 0 0 0 0 0 0 0 0 0 0 0 0 0.25 0"/>
<feBlend mode="normal" in2="BackgroundImageFix" result="effect1_dropShadow"/>
<feBlend mode="normal" in="SourceGraphic" in2="effect1_dropShadow" result="shape"/>
</filter>
<filter id="filter16_d" x="131" y="100" width="88" height="108" filterUnits="userSpaceOnUse" color-interpolation-filters="sRGB">
<feFlood flood-opacity="0" result="BackgroundImageFix"/>
<feColorMatrix in="SourceAlpha" type="matrix" values="0 0 0 0 0 0 0 0 0 0 0 0 0 0 0 0 0 0 127 0" result="hardAlpha"/>
<feOffset dx="8" dy="11"/>
<feGaussianBlur stdDeviation="9.5"/>
<feComposite in2="hardAlpha" operator="out"/>
<feColorMatrix type="matrix" values="0 0 0 0 0 0 0 0 0 0 0 0 0 0 0 0 0 0 0.25 0"/>
<feBlend mode="normal" in2="BackgroundImageFix" result="effect1_dropShadow"/>
<feBlend mode="normal" in="SourceGraphic" in2="effect1_dropShadow" result="shape"/>
</filter>
<filter id="filter17_d" x="84" y="100" width="85" height="108" filterUnits="userSpaceOnUse" color-interpolation-filters="sRGB">
<feFlood flood-opacity="0" result="BackgroundImageFix"/>
<feColorMatrix in="SourceAlpha" type="matrix" values="0 0 0 0 0 0 0 0 0 0 0 0 0 0 0 0 0 0 127 0" result="hardAlpha"/>
<feOffset dx="8" dy="11"/>
<feGaussianBlur stdDeviation="9.5"/>
<feComposite in2="hardAlpha" operator="out"/>
<feColorMatrix type="matrix" values="0 0 0 0 0 0 0 0 0 0 0 0 0 0 0 0 0 0 0.25 0"/>
<feBlend mode="normal" in2="BackgroundImageFix" result="effect1_dropShadow"/>
<feBlend mode="normal" in="SourceGraphic" in2="effect1_dropShadow" result="shape"/>
</filter>
<filter id="filter18_d" x="132" y="43.5" width="87" height="101.5" filterUnits="userSpaceOnUse" color-interpolation-filters="sRGB">
<feFlood flood-opacity="0" result="BackgroundImageFix"/>
<feColorMatrix in="SourceAlpha" type="matrix" values="0 0 0 0 0 0 0 0 0 0 0 0 0 0 0 0 0 0 127 0" result="hardAlpha"/>
<feOffset dx="8" dy="11"/>
<feGaussianBlur stdDeviation="9.5"/>
<feComposite in2="hardAlpha" operator="out"/>
<feColorMatrix type="matrix" values="0 0 0 0 0 0 0 0 0 0 0 0 0 0 0 0 0 0 0.25 0"/>
<feBlend mode="normal" in2="BackgroundImageFix" result="effect1_dropShadow"/>
<feBlend mode="normal" in="SourceGraphic" in2="effect1_dropShadow" result="shape"/>
</filter>
<filter id="filter19_d" x="0" y="0" width="178" height="255" filterUnits="userSpaceOnUse" color-interpolation-filters="sRGB">
<feFlood flood-opacity="0" result="BackgroundImageFix"/>
<feColorMatrix in="SourceAlpha" type="matrix" values="0 0 0 0 0 0 0 0 0 0 0 0 0 0 0 0 0 0 127 0" result="hardAlpha"/>
<feOffset dx="8" dy="11"/>
<feGaussianBlur stdDeviation="9.5"/>
<feComposite in2="hardAlpha" operator="out"/>
<feColorMatrix type="matrix" values="0 0 0 0 0 0 0 0 0 0 0 0 0 0 0 0 0 0 0.25 0"/>
<feBlend mode="normal" in2="BackgroundImageFix" result="effect1_dropShadow"/>
<feBlend mode="normal" in="SourceGraphic" in2="effect1_dropShadow" result="shape"/>
</filter>
<filter id="filter20_d" x="2" y="2" width="109.493" height="249" filterUnits="userSpaceOnUse" color-interpolation-filters="sRGB">
<feFlood flood-opacity="0" result="BackgroundImageFix"/>
<feColorMatrix in="SourceAlpha" type="matrix" values="0 0 0 0 0 0 0 0 0 0 0 0 0 0 0 0 0 0 127 0" result="hardAlpha"/>
<feOffset dx="8" dy="11"/>
<feGaussianBlur stdDeviation="9.5"/>
<feComposite in2="hardAlpha" operator="out"/>
<feColorMatrix type="matrix" values="0 0 0 0 0 0 0 0 0 0 0 0 0 0 0 0 0 0 0.25 0"/>
<feBlend mode="normal" in2="BackgroundImageFix" result="effect1_dropShadow"/>
<feBlend mode="normal" in="SourceGraphic" in2="effect1_dropShadow" result="shape"/>
</filter>
<filter id="filter21_d" x="192" y="70.9529" width="117.676" height="184.403" filterUnits="userSpaceOnUse" color-interpolation-filters="sRGB">
<feFlood flood-opacity="0" result="BackgroundImageFix"/>
<feColorMatrix in="SourceAlpha" type="matrix" values="0 0 0 0 0 0 0 0 0 0 0 0 0 0 0 0 0 0 127 0" result="hardAlpha"/>
<feOffset dx="8" dy="11"/>
<feGaussianBlur stdDeviation="9.5"/>
<feComposite in2="hardAlpha" operator="out"/>
<feColorMatrix type="matrix" values="0 0 0 0 0 0 0 0 0 0 0 0 0 0 0 0 0 0 0.25 0"/>
<feBlend mode="normal" in2="BackgroundImageFix" result="effect1_dropShadow"/>
<feBlend mode="normal" in="SourceGraphic" in2="effect1_dropShadow" result="shape"/>
</filter>
<filter id="filter22_d" x="234.993" y="71.7502" width="74.683" height="183.606" filterUnits="userSpaceOnUse" color-interpolation-filters="sRGB">
<feFlood flood-opacity="0" result="BackgroundImageFix"/>
<feColorMatrix in="SourceAlpha" type="matrix" values="0 0 0 0 0 0 0 0 0 0 0 0 0 0 0 0 0 0 127 0" result="hardAlpha"/>
<feOffset dx="8" dy="11"/>
<feGaussianBlur stdDeviation="9.5"/>
<feComposite in2="hardAlpha" operator="out"/>
<feColorMatrix type="matrix" values="0 0 0 0 0 0 0 0 0 0 0 0 0 0 0 0 0 0 0.25 0"/>
<feBlend mode="normal" in2="BackgroundImageFix" result="effect1_dropShadow"/>
<feBlend mode="normal" in="SourceGraphic" in2="effect1_dropShadow" result="shape"/>
</filter>
<filter id="filter23_d" x="249.826" y="18" width="142.781" height="136.893" filterUnits="userSpaceOnUse" color-interpolation-filters="sRGB">
<feFlood flood-opacity="0" result="BackgroundImageFix"/>
<feColorMatrix in="SourceAlpha" type="matrix" values="0 0 0 0 0 0 0 0 0 0 0 0 0 0 0 0 0 0 127 0" result="hardAlpha"/>
<feOffset dx="8" dy="11"/>
<feGaussianBlur stdDeviation="9.5"/>
<feComposite in2="hardAlpha" operator="out"/>
<feColorMatrix type="matrix" values="0 0 0 0 0 0 0 0 0 0 0 0 0 0 0 0 0 0 0.25 0"/>
<feBlend mode="normal" in2="BackgroundImageFix" result="effect1_dropShadow"/>
<feBlend mode="normal" in="SourceGraphic" in2="effect1_dropShadow" result="shape"/>
</filter>
<filter id="filter24_d" x="283" y="1" width="351" height="224" filterUnits="userSpaceOnUse" color-interpolation-filters="sRGB">
<feFlood flood-opacity="0" result="BackgroundImageFix"/>
<feColorMatrix in="SourceAlpha" type="matrix" values="0 0 0 0 0 0 0 0 0 0 0 0 0 0 0 0 0 0 127 0" result="hardAlpha"/>
<feOffset dx="8" dy="11"/>
<feGaussianBlur stdDeviation="9.5"/>
<feComposite in2="hardAlpha" operator="out"/>
<feColorMatrix type="matrix" values="0 0 0 0 0 0 0 0 0 0 0 0 0 0 0 0 0 0 0.25 0"/>
<feBlend mode="normal" in2="BackgroundImageFix" result="effect1_dropShadow"/>
<feBlend mode="normal" in="SourceGraphic" in2="effect1_dropShadow" result="shape"/>
</filter>
<filter id="filter25_d" x="334" y="1" width="289" height="181" filterUnits="userSpaceOnUse" color-interpolation-filters="sRGB">
<feFlood flood-opacity="0" result="BackgroundImageFix"/>
<feColorMatrix in="SourceAlpha" type="matrix" values="0 0 0 0 0 0 0 0 0 0 0 0 0 0 0 0 0 0 127 0" result="hardAlpha"/>
<feOffset dx="8" dy="11"/>
<feGaussianBlur stdDeviation="9.5"/>
<feComposite in2="hardAlpha" operator="out"/>
<feColorMatrix type="matrix" values="0 0 0 0 0 0 0 0 0 0 0 0 0 0 0 0 0 0 0.25 0"/>
<feBlend mode="normal" in2="BackgroundImageFix" result="effect1_dropShadow"/>
<feBlend mode="normal" in="SourceGraphic" in2="effect1_dropShadow" result="shape"/>
</filter>
<filter id="filter26_d" x="302" y="42" width="54.5" height="85.985" filterUnits="userSpaceOnUse" color-interpolation-filters="sRGB">
<feFlood flood-opacity="0" result="BackgroundImageFix"/>
<feColorMatrix in="SourceAlpha" type="matrix" values="0 0 0 0 0 0 0 0 0 0 0 0 0 0 0 0 0 0 127 0" result="hardAlpha"/>
<feOffset dx="-2" dy="29"/>
<feGaussianBlur stdDeviation="4"/>
<feComposite in2="hardAlpha" operator="out"/>
<feColorMatrix type="matrix" values="0 0 0 0 0 0 0 0 0 0 0 0 0 0 0 0 0 0 0.25 0"/>
<feBlend mode="normal" in2="BackgroundImageFix" result="effect1_dropShadow"/>
<feBlend mode="normal" in="SourceGraphic" in2="effect1_dropShadow" result="shape"/>
</filter>
<filter id="filter27_d" x="237.094" y="37.0817" width="158.424" height="140.054" filterUnits="userSpaceOnUse" color-interpolation-filters="sRGB">
<feFlood flood-opacity="0" result="BackgroundImageFix"/>
<feColorMatrix in="SourceAlpha" type="matrix" values="0 0 0 0 0 0 0 0 0 0 0 0 0 0 0 0 0 0 127 0" result="hardAlpha"/>
<feOffset dx="8" dy="11"/>
<feGaussianBlur stdDeviation="9.5"/>
<feComposite in2="hardAlpha" operator="out"/>
<feColorMatrix type="matrix" values="0 0 0 0 0 0 0 0 0 0 0 0 0 0 0 0 0 0 0.25 0"/>
<feBlend mode="normal" in2="BackgroundImageFix" result="effect1_dropShadow"/>
<feBlend mode="normal" in="SourceGraphic" in2="effect1_dropShadow" result="shape"/>
</filter>
<filter id="filter28_d" x="179" y="110" width="116.413" height="115.728" filterUnits="userSpaceOnUse" color-interpolation-filters="sRGB">
<feFlood flood-opacity="0" result="BackgroundImageFix"/>
<feColorMatrix in="SourceAlpha" type="matrix" values="0 0 0 0 0 0 0 0 0 0 0 0 0 0 0 0 0 0 127 0" result="hardAlpha"/>
<feOffset dx="8" dy="11"/>
<feGaussianBlur stdDeviation="9.5"/>
<feComposite in2="hardAlpha" operator="out"/>
<feColorMatrix type="matrix" values="0 0 0 0 0 0 0 0 0 0 0 0 0 0 0 0 0 0 0.25 0"/>
<feBlend mode="normal" in2="BackgroundImageFix" result="effect1_dropShadow"/>
<feBlend mode="normal" in="SourceGraphic" in2="effect1_dropShadow" result="shape"/>
</filter>
<filter id="filter29_d" x="392" y="106.5" width="57" height="131.5" filterUnits="userSpaceOnUse" color-interpolation-filters="sRGB">
<feFlood flood-opacity="0" result="BackgroundImageFix"/>
<feColorMatrix in="SourceAlpha" type="matrix" values="0 0 0 0 0 0 0 0 0 0 0 0 0 0 0 0 0 0 127 0" result="hardAlpha"/>
<feOffset dx="8" dy="11"/>
<feGaussianBlur stdDeviation="9.5"/>
<feComposite in2="hardAlpha" operator="out"/>
<feColorMatrix type="matrix" values="0 0 0 0 0 0 0 0 0 0 0 0 0 0 0 0 0 0 0.25 0"/>
<feBlend mode="normal" in2="BackgroundImageFix" result="effect1_dropShadow"/>
<feBlend mode="normal" in="SourceGraphic" in2="effect1_dropShadow" result="shape"/>
</filter>
<filter id="filter30_d" x="411" y="104" width="55" height="133" filterUnits="userSpaceOnUse" color-interpolation-filters="sRGB">
<feFlood flood-opacity="0" result="BackgroundImageFix"/>
<feColorMatrix in="SourceAlpha" type="matrix" values="0 0 0 0 0 0 0 0 0 0 0 0 0 0 0 0 0 0 127 0" result="hardAlpha"/>
<feOffset dx="8" dy="11"/>
<feGaussianBlur stdDeviation="9.5"/>
<feComposite in2="hardAlpha" operator="out"/>
<feColorMatrix type="matrix" values="0 0 0 0 0 0 0 0 0 0 0 0 0 0 0 0 0 0 0.25 0"/>
<feBlend mode="normal" in2="BackgroundImageFix" result="effect1_dropShadow"/>
<feBlend mode="normal" in="SourceGraphic" in2="effect1_dropShadow" result="shape"/>
</filter>
<filter id="filter31_d" x="392" y="91" width="74" height="67.5" filterUnits="userSpaceOnUse" color-interpolation-filters="sRGB">
<feFlood flood-opacity="0" result="BackgroundImageFix"/>
<feColorMatrix in="SourceAlpha" type="matrix" values="0 0 0 0 0 0 0 0 0 0 0 0 0 0 0 0 0 0 127 0" result="hardAlpha"/>
<feOffset dx="8" dy="11"/>
<feGaussianBlur stdDeviation="9.5"/>
<feComposite in2="hardAlpha" operator="out"/>
<feColorMatrix type="matrix" values="0 0 0 0 0 0 0 0 0 0 0 0 0 0 0 0 0 0 0.25 0"/>
<feBlend mode="normal" in2="BackgroundImageFix" result="effect1_dropShadow"/>
<feBlend mode="normal" in="SourceGraphic" in2="effect1_dropShadow" result="shape"/>
</filter>
<filter id="filter32_d" x="408" y="51" width="51" height="61" filterUnits="userSpaceOnUse" color-interpolation-filters="sRGB">
<feFlood flood-opacity="0" result="BackgroundImageFix"/>
<feColorMatrix in="SourceAlpha" type="matrix" values="0 0 0 0 0 0 0 0 0 0 0 0 0 0 0 0 0 0 127 0" result="hardAlpha"/>
<feOffset dx="8" dy="11"/>
<feGaussianBlur stdDeviation="9.5"/>
<feComposite in2="hardAlpha" operator="out"/>
<feColorMatrix type="matrix" values="0 0 0 0 0 0 0 0 0 0 0 0 0 0 0 0 0 0 0.25 0"/>
<feBlend mode="normal" in2="BackgroundImageFix" result="effect1_dropShadow"/>
<feBlend mode="normal" in="SourceGraphic" in2="effect1_dropShadow" result="shape"/>
</filter>
<filter id="filter33_d" x="408" y="68" width="51" height="68" filterUnits="userSpaceOnUse" color-interpolation-filters="sRGB">
<feFlood flood-opacity="0" result="BackgroundImageFix"/>
<feColorMatrix in="SourceAlpha" type="matrix" values="0 0 0 0 0 0 0 0 0 0 0 0 0 0 0 0 0 0 127 0" result="hardAlpha"/>
<feOffset dx="8" dy="11"/>
<feGaussianBlur stdDeviation="9.5"/>
<feComposite in2="hardAlpha" operator="out"/>
<feColorMatrix type="matrix" values="0 0 0 0 0 0 0 0 0 0 0 0 0 0 0 0 0 0 0.25 0"/>
<feBlend mode="normal" in2="BackgroundImageFix" result="effect1_dropShadow"/>
<feBlend mode="normal" in="SourceGraphic" in2="effect1_dropShadow" result="shape"/>
</filter>
<filter id="filter34_d" x="394" y="68" width="52" height="67" filterUnits="userSpaceOnUse" color-interpolation-filters="sRGB">
<feFlood flood-opacity="0" result="BackgroundImageFix"/>
<feColorMatrix in="SourceAlpha" type="matrix" values="0 0 0 0 0 0 0 0 0 0 0 0 0 0 0 0 0 0 127 0" result="hardAlpha"/>
<feOffset dx="8" dy="11"/>
<feGaussianBlur stdDeviation="9.5"/>
<feComposite in2="hardAlpha" operator="out"/>
<feColorMatrix type="matrix" values="0 0 0 0 0 0 0 0 0 0 0 0 0 0 0 0 0 0 0.25 0"/>
<feBlend mode="normal" in2="BackgroundImageFix" result="effect1_dropShadow"/>
<feBlend mode="normal" in="SourceGraphic" in2="effect1_dropShadow" result="shape"/>
</filter>
<filter id="filter35_d" x="394" y="51" width="52" height="61" filterUnits="userSpaceOnUse" color-interpolation-filters="sRGB">
<feFlood flood-opacity="0" result="BackgroundImageFix"/>
<feColorMatrix in="SourceAlpha" type="matrix" values="0 0 0 0 0 0 0 0 0 0 0 0 0 0 0 0 0 0 127 0" result="hardAlpha"/>
<feOffset dx="8" dy="11"/>
<feGaussianBlur stdDeviation="9.5"/>
<feComposite in2="hardAlpha" operator="out"/>
<feColorMatrix type="matrix" values="0 0 0 0 0 0 0 0 0 0 0 0 0 0 0 0 0 0 0.25 0"/>
<feBlend mode="normal" in2="BackgroundImageFix" result="effect1_dropShadow"/>
<feBlend mode="normal" in="SourceGraphic" in2="effect1_dropShadow" result="shape"/>
</filter>
<filter id="filter36_f" x="408" y="105" width="25" height="15" filterUnits="userSpaceOnUse" color-interpolation-filters="sRGB">
<feFlood flood-opacity="0" result="BackgroundImageFix"/>
<feBlend mode="normal" in="SourceGraphic" in2="BackgroundImageFix" result="shape"/>
<feGaussianBlur stdDeviation="2.5" result="effect1_foregroundBlur"/>
</filter>
<filter id="filter37_d" x="405" y="159" width="83.7693" height="86.993" filterUnits="userSpaceOnUse" color-interpolation-filters="sRGB">
<feFlood flood-opacity="0" result="BackgroundImageFix"/>
<feColorMatrix in="SourceAlpha" type="matrix" values="0 0 0 0 0 0 0 0 0 0 0 0 0 0 0 0 0 0 127 0" result="hardAlpha"/>
<feOffset dx="8" dy="11"/>
<feGaussianBlur stdDeviation="9.5"/>
<feComposite in2="hardAlpha" operator="out"/>
<feColorMatrix type="matrix" values="0 0 0 0 0 0 0 0 0 0 0 0 0 0 0 0 0 0 0.25 0"/>
<feBlend mode="normal" in2="BackgroundImageFix" result="effect1_dropShadow"/>
<feBlend mode="normal" in="SourceGraphic" in2="effect1_dropShadow" result="shape"/>
</filter>
<filter id="filter38_d" x="209" y="33" width="101.74" height="148" filterUnits="userSpaceOnUse" color-interpolation-filters="sRGB">
<feFlood flood-opacity="0" result="BackgroundImageFix"/>
<feColorMatrix in="SourceAlpha" type="matrix" values="0 0 0 0 0 0 0 0 0 0 0 0 0 0 0 0 0 0 127 0" result="hardAlpha"/>
<feMorphology radius="12" operator="erode" in="SourceAlpha" result="effect1_dropShadow"/>
<feOffset dx="-8" dy="55"/>
<feGaussianBlur stdDeviation="10"/>
<feColorMatrix type="matrix" values="0 0 0 0 0 0 0 0 0 0 0 0 0 0 0 0 0 0 0.25 0"/>
<feBlend mode="normal" in2="BackgroundImageFix" result="effect1_dropShadow"/>
<feBlend mode="normal" in="SourceGraphic" in2="effect1_dropShadow" result="shape"/>
</filter>
<filter id="filter39_d" x="218.071" y="88.6558" width="84.9178" height="84.6821" filterUnits="userSpaceOnUse" color-interpolation-filters="sRGB">
<feFlood flood-opacity="0" result="BackgroundImageFix"/>
<feColorMatrix in="SourceAlpha" type="matrix" values="0 0 0 0 0 0 0 0 0 0 0 0 0 0 0 0 0 0 127 0" result="hardAlpha"/>
<feOffset dx="8" dy="11"/>
<feGaussianBlur stdDeviation="9.5"/>
<feComposite in2="hardAlpha" operator="out"/>
<feColorMatrix type="matrix" values="0 0 0 0 0 0 0 0 0 0 0 0 0 0 0 0 0 0 0.25 0"/>
<feBlend mode="normal" in2="BackgroundImageFix" result="effect1_dropShadow"/>
<feBlend mode="normal" in="SourceGraphic" in2="effect1_dropShadow" result="shape"/>
</filter>
<filter id="filter40_d" x="450" y="97" width="68" height="110.586" filterUnits="userSpaceOnUse" color-interpolation-filters="sRGB">
<feFlood flood-opacity="0" result="BackgroundImageFix"/>
<feColorMatrix in="SourceAlpha" type="matrix" values="0 0 0 0 0 0 0 0 0 0 0 0 0 0 0 0 0 0 127 0" result="hardAlpha"/>
<feMorphology radius="10" operator="erode" in="SourceAlpha" result="effect1_dropShadow"/>
<feOffset dx="8" dy="53"/>
<feGaussianBlur stdDeviation="10"/>
<feComposite in2="hardAlpha" operator="out"/>
<feColorMatrix type="matrix" values="0 0 0 0 0 0 0 0 0 0 0 0 0 0 0 0 0 0 0.25 0"/>
<feBlend mode="normal" in2="BackgroundImageFix" result="effect1_dropShadow"/>
<feBlend mode="normal" in="SourceGraphic" in2="effect1_dropShadow" result="shape"/>
</filter>
<linearGradient id="paint0_linear" x1="320.5" y1="-11" x2="331" y2="45.5" gradientUnits="userSpaceOnUse">
<stop stop-color="#8899F2"/>
<stop offset="1" stop-color="#1639F3"/>
</linearGradient>
<linearGradient id="paint1_linear" x1="260" y1="159.5" x2="260" y2="131" gradientUnits="userSpaceOnUse">
<stop stop-color="#2EBA87"/>
<stop offset="1" stop-color="#2EBA87" stop-opacity="0"/>
</linearGradient>
<linearGradient id="paint2_linear" x1="508.5" y1="32" x2="610.5" y2="226" gradientUnits="userSpaceOnUse">
<stop stop-color="#EA60DC"/>
<stop offset="1" stop-color="#9E47E6"/>
</linearGradient>
<linearGradient id="paint3_linear" x1="295" y1="101.5" x2="290" y2="225" gradientUnits="userSpaceOnUse">
<stop stop-color="#30BBF6"/>
<stop offset="1" stop-color="#30BBF6" stop-opacity="0"/>
</linearGradient>
<linearGradient id="paint4_linear" x1="295" y1="101.5" x2="295" y2="225" gradientUnits="userSpaceOnUse">
<stop stop-color="#5E86ED"/>
<stop offset="1" stop-color="#5E86ED" stop-opacity="0"/>
</linearGradient>
<linearGradient id="paint5_linear" x1="48.7436" y1="10" x2="48.7436" y2="221" gradientUnits="userSpaceOnUse">
<stop stop-color="#F29BEA"/>
<stop offset="1" stop-color="#EA60DC" stop-opacity="0"/>
</linearGradient>
<linearGradient id="paint6_linear" x1="241.493" y1="224.642" x2="244.182" y2="79.6668" gradientUnits="userSpaceOnUse">
<stop stop-color="#626EBF"/>
<stop offset="1" stop-color="#A38ED7"/>
</linearGradient>
<linearGradient id="paint7_linear" x1="253.579" y1="224.866" x2="256.265" y2="80.0459" gradientUnits="userSpaceOnUse">
<stop stop-color="#8088CE"/>
<stop offset="1" stop-color="#A38ED6"/>
</linearGradient>
<linearGradient id="paint8_linear" x1="260.826" y1="122.983" x2="396.06" y2="61.6948" gradientUnits="userSpaceOnUse">
<stop stop-color="#9C8AD4"/>
<stop offset="1" stop-color="#6670C0"/>
</linearGradient>
<linearGradient id="paint9_linear" x1="456.5" y1="9" x2="397" y2="196.19" gradientUnits="userSpaceOnUse">
<stop stop-color="#F2BFB6"/>
<stop offset="1" stop-color="#E8798E"/>
</linearGradient>
<linearGradient id="paint10_linear" x1="343.52" y1="68.7123" x2="323.142" y2="43.8426" gradientUnits="userSpaceOnUse">
<stop stop-color="#8EEAC9"/>
<stop offset="1" stop-color="#C5FEE9"/>
</linearGradient>
<linearGradient id="paint11_linear" x1="243.748" y1="141.587" x2="376.808" y2="93.7604" gradientUnits="userSpaceOnUse">
<stop stop-color="#C2BAED" stop-opacity="0"/>
<stop offset="1" stop-color="#6D73C3"/>
</linearGradient>
<radialGradient id="paint12_radial" cx="0" cy="0" r="1" gradientUnits="userSpaceOnUse" gradientTransform="translate(221.432 146.47) rotate(57.9303) scale(32.8408 33.1794)">
<stop stop-color="#FDB5E0"/>
<stop offset="0.478013" stop-color="#F661F9"/>
<stop offset="0.822917" stop-color="#8A0A57"/>
<stop offset="1" stop-color="#BD2681"/>
</radialGradient>
<linearGradient id="paint13_linear" x1="412.5" y1="112" x2="412.5" y2="208" gradientUnits="userSpaceOnUse">
<stop stop-color="#8E92F5"/>
<stop offset="0.449106" stop-color="#575EFA"/>
<stop offset="1" stop-color="#141EFF"/>
</linearGradient>
<linearGradient id="paint14_linear" x1="412.5" y1="112" x2="412.5" y2="208" gradientUnits="userSpaceOnUse">
<stop stop-color="#8E92F5"/>
<stop offset="0.449106" stop-color="#575EFA"/>
<stop offset="1" stop-color="#141EFF"/>
</linearGradient>
<linearGradient id="paint15_linear" x1="412.5" y1="112" x2="412.5" y2="208" gradientUnits="userSpaceOnUse">
<stop stop-color="#8E92F5"/>
<stop offset="0.449106" stop-color="#575EFA"/>
<stop offset="1" stop-color="#141EFF"/>
</linearGradient>
<linearGradient id="paint16_linear" x1="430.5" y1="112" x2="430.5" y2="207" gradientUnits="userSpaceOnUse">
<stop stop-color="#646AF9"/>
<stop offset="1" stop-color="#0C1196"/>
</linearGradient>
<linearGradient id="paint17_linear" x1="430.718" y1="94.5785" x2="405.122" y2="117.073" gradientUnits="userSpaceOnUse">
<stop stop-color="#767BEC"/>
<stop offset="1" stop-color="#B6B9F4"/>
</linearGradient>
<linearGradient id="paint18_linear" x1="425.5" y1="59" x2="425.5" y2="82" gradientUnits="userSpaceOnUse">
<stop stop-color="#D0F1FF"/>
<stop offset="1" stop-color="#7BA0FF"/>
</linearGradient>
<linearGradient id="paint19_linear" x1="425.5" y1="59" x2="418.735" y2="69.7541" gradientUnits="userSpaceOnUse">
<stop stop-color="#D0F1FF"/>
<stop offset="1" stop-color="#7BA0FF"/>
</linearGradient>
<linearGradient id="paint20_linear" x1="425.5" y1="58.4286" x2="425.5" y2="81.5714" gradientUnits="userSpaceOnUse">
<stop stop-color="#D0F1FF"/>
<stop offset="1" stop-color="#7BA0FF"/>
</linearGradient>
<linearGradient id="paint21_linear" x1="423.767" y1="77.7143" x2="419.95" y2="100.442" gradientUnits="userSpaceOnUse">
<stop stop-color="#7CA0FF"/>
<stop offset="1" stop-color="#2B31B7"/>
</linearGradient>
<linearGradient id="paint22_linear" x1="412" y1="59.0143" x2="412" y2="81.3857" gradientUnits="userSpaceOnUse">
<stop stop-color="#D0F1FF"/>
<stop offset="1" stop-color="#7BA0FF"/>
</linearGradient>
<linearGradient id="paint23_linear" x1="417.133" y1="80.9714" x2="400.649" y2="95.7308" gradientUnits="userSpaceOnUse">
<stop stop-color="#7CA0FF"/>
<stop offset="1" stop-color="#2B31B7"/>
</linearGradient>
<linearGradient id="paint24_linear" x1="412" y1="59" x2="412" y2="82" gradientUnits="userSpaceOnUse">
<stop stop-color="#D0F1FF"/>
<stop offset="1" stop-color="#7BA0FF"/>
</linearGradient>
<linearGradient id="paint25_linear" x1="419" y1="81.1481" x2="416.269" y2="61.0568" gradientUnits="userSpaceOnUse">
<stop stop-color="#B1C7FF"/>
<stop offset="1" stop-color="#4975E7"/>
</linearGradient>
<linearGradient id="paint26_linear" x1="437.87" y1="167.798" x2="423.5" y2="214.797" gradientUnits="userSpaceOnUse">
<stop stop-color="#F5E6BE"/>
<stop offset="0.596551" stop-color="#FFD15A"/>
<stop offset="0.919652" stop-color="#FF9F5A"/>
</linearGradient>
<radialGradient id="paint27_radial" cx="0" cy="0" r="1" gradientUnits="userSpaceOnUse" gradientTransform="translate(256.5 60) rotate(58.431) scale(48.7083 48.786)">
<stop stop-color="#65DAF3"/>
<stop offset="0.478013" stop-color="#6167F9"/>
<stop offset="0.84672" stop-color="#3426BD"/>
<stop offset="1" stop-color="#1C0A8A"/>
</radialGradient>
<radialGradient id="paint28_radial" cx="0" cy="0" r="1" gradientUnits="userSpaceOnUse" gradientTransform="translate(482.5 107) rotate(110.794) scale(42.2522 42.6198)">
<stop stop-color="#A5A8FF"/>
<stop offset="0.515927" stop-color="#6066FF"/>
<stop offset="0.851955" stop-color="#C891FF"/>
<stop offset="1" stop-color="#7100A7"/>
</radialGradient>
</defs>
</svg>
